# xmcd
# Copyright (c) 1998 CDDB Inc.
#
# Track frame offsets:
#	150
#	11410
#	24848
#	38908
#	50088
#	63058
#	85235
#	98873
#	112725
#	129663
#	151975
#	165423
#	179113
#	195623
#	213368
#	225120
#	238155
#	255885
#
# Disc length: 3628 seconds
#
# Revision: 1
# Processed by: cddbd v1.5.1PL2 Copyright (c) Steve Scherf et al.
# Submitted via: audiograbber 1.70
#
DISCID=d80e2a12
DTITLE=diverse - Legends Of Gospel and Blues
DYEAR=1900
DGENRE=
TTITLE0=Joshua Fit The Battle Of Jericho - Mahalia Jackson
TTITLE1=On The Sunny SideOf The Street - Louis Armstrong And His Orchestra
TTITLE2=Swing Down Chariot - Golden Gate Quartet
TTITLE3=No Shoes - John Lee Hooker
TTITLE4=Oh Lord Is It? - Mahalia Jackson
TTITLE5=Slowly I'm Falling - Katie Webster
TTITLE6=My Lord's Writing All The Time - Golden Gate Quartet
TTITLE7=My Old Flame - Dinah Washington
TTITLE8=Out Of The Depths - Mahalia Jackson
TTITLE9=When Your Lover Has Gone - Billie Holiday
TTITLE10=Anyhow - Golden Gate Quartet
TTITLE11=3.O'Clock Blues - B. B. King
TTITLE12=The Lord's Prayer - Mahalia Jackson
TTITLE13=Lord I Wonder - Katie Webster
TTITLE14=I Love You Honey - John Lee Hooker
TTITLE15=I Gotta Right To Sing The Blues - Billie Holiday
TTITLE16=When The Saints Go Marchin'In - Mahalia Jackson
TTITLE17=Basin Street Blues - Louis Armstrong
EXTD=
EXTT0=
EXTT1=
EXTT2=
EXTT3=
EXTT4=
EXTT5=
EXTT6=
EXTT7=
EXTT8=
EXTT9=
EXTT10=
EXTT11=
EXTT12=
EXTT13=
EXTT14=
EXTT15=
EXTT16=
EXTT17=
PLAYORDER=
